<?xml version="1.0" standalone="no"?> <!DOCTYPE svg PUBLIC "-//W3C//DTD SVG 1.0//EN" "http://www.w3.org/TR/2001/REC-SVG-20010904/DTD/svg10.dtd" > <svg xmlns="http://www.w3.org/2000/svg" width="100%" height="100%">
<defs >
<font id="SourceSansPro" horiz-adv-x="517" ><font-face
    font-family="Source Sans Pro Black"
    units-per-em="1000"
    panose-1="2 11 8 3 3 4 3 9 2 4"
    ascent="984"
    descent="-273"
    alphabetic="0" />
<missing-glyph horiz-adv-x="676" d="M26 0L156 660H680L550 0H26ZM280 340L234 516L162 162L280 340ZM432 340L478 162L550 516L432 340ZM284 164L242 98H372L358 164L342 260H338L284 164ZM374 418L432 514L460 562H338L350 514L370 418H374Z" />
<glyph unicode=" " glyph-name="space" horiz-adv-x="200" />
<glyph unicode="!" glyph-name="exclam" horiz-adv-x="350" d="M120 238L158 530L178 670H338L306 530L224 238H120ZM126 -12Q90 -12 68 11T46 72Q46 115 77 149T156 184Q192 184 214 160T236 100Q236 56 205 22T126 -12Z" />
<glyph unicode="&quot;" glyph-name="quotedbl" horiz-adv-x="550" d="M118 338L138 530L158 670H316L284 530L222 338H118ZM358 338L378 530L398 670H556L524 530L462 338H358Z" />
<glyph unicode="#" glyph-name="numbersign" horiz-adv-x="516" d="M32 0L90 182H16L40 284H122L154 386H80L104 488H186L238 650H330L278 488H368L420 650H512L460 488H534L510 386H428L396 284H470L446 182H364L306 0H214L272 182H182L124 0H32ZM214 284H304L336
386H246L214 284Z" />
<glyph unicode="$" glyph-name="dollar" horiz-adv-x="520" d="M510 562L410 472Q367 528 314 528Q285 528 269 513T252 472Q252 449 272 427T322 383T380 338T429 277T450 196Q450 113 398 57T257 -9L236 -110H132L153 -4Q63 18 2 90L100 186Q155 116 220 116Q292
116 292 176Q292 202 272 226T222 272T164 318T115 377T94 454Q94 535 146 590T285 654L304 754H408L388 646Q456 625 510 562Z" />
<glyph unicode="%" glyph-name="percent" horiz-adv-x="844" d="M194 258Q134 258 92 302T50 420Q50 530 105 602T246 674Q306 674 348 630T390 512Q390 402 335 330T194 258ZM236 580Q205 580 184 537T162 422Q162 352 204 352Q235 352 256 395T278 510Q278 580
236 580ZM234 -12H144L614 672H704L234 -12ZM614 -12Q554 -12 512 32T470 150Q470 260 525 332T666 404Q726 404 768 360T810 242Q810 132 755 60T614 -12ZM656 310Q625 310 604 267T582 152Q582 82 624 82Q655 82 676 125T698 240Q698 310 656 310Z" />
<glyph unicode="&amp;" glyph-name="ampersand" horiz-adv-x="652" d="M168 170Q168 142 186 125T236 108Q274 108 311 125Q255 181 214 248Q168 210 168 170ZM272 470Q272 449 279 419Q369 467 369 525Q369 558 338 558Q312 558 292 534T272 470ZM516 372H660Q598
240 517 147Q558 126 610 114L548 -12Q475 2 406 47Q317 -12 208 -12Q117 -12 66 33T14 154Q14 227 53 274T160 359Q140 416 140 466Q140 546 200 604T348 662Q416 662 454 625T492 522Q492 487 479 457T440 402T389 360T327 320Q365 265 421 215Q479 282 516 372Z"
/>
<glyph unicode="&apos;" glyph-name="quotesingle" horiz-adv-x="310" d="M118 338L138 530L158 670H316L284 530L222 338H118Z" />
<glyph unicode="(" glyph-name="parenleft" horiz-adv-x="344" d="M112 -180Q52 -12 52 130Q52 298 110 440T288 734L380 688Q180 417 180 120Q180 -39 214 -138L112 -180Z" />
<glyph unicode=")" glyph-name="parenright" horiz-adv-x="346" d="M240 734Q300 566 300 424Q300 256 242 114T64 -180L-28 -134Q172 137 172 434Q172 593 138 692L240 734Z" />
<glyph unicode="*" glyph-name="asterisk" horiz-adv-x="452" d="M172 340L112 396L190 498L92 556L128 630L238 596L272 714L354 708L346 586L464 600L476 520L362 480L400 370L326 328L262 424L172 340Z" />
<glyph unicode="+" glyph-name="plus" horiz-adv-x="520" d="M212 92V274H48V386H214V568H330V386H496V274H328V92H212Z" />
<glyph unicode="," glyph-name="comma" horiz-adv-x="310" d="M-10 -196L-26 -110Q87 -79 111 2Q73 4 50 25T26 82Q26 124 55 154T130 184Q175 184 199 156T224 76Q224 -28 162 -101T-10 -196Z" />
<glyph unicode="-" glyph-name="hyphen" horiz-adv-x="328" d="M32 198L56 310H296L272 198H32Z" />
<glyph unicode="." glyph-name="period" horiz-adv-x="310" d="M104 -12Q68 -12 46 11T24 72Q24 115 55 149T134 184Q170 184 192 160T214 100Q214 56 183 22T104 -12Z" />
<glyph unicode="/" glyph-name="slash" horiz-adv-x="324" d="M-68 -160L280 710H384L34 -160H-68Z" />
<glyph unicode="0" glyph-name="zero" horiz-adv-x="520" d="M224 -12Q141 -12 89 46T36 220Q36 327 61 411T129 545T220 620T322 646Q405 646 456 587T508 412Q508 305 483 221T416 88T325 13T224 -12ZM312 524Q264 524 224 431T184 202Q184 150 196 130T234
110Q282 110 322 202T362 430Q362 524 312 524Z" />
<glyph unicode="1" glyph-name="one" horiz-adv-x="520" d="M16 0L42 128H170L240 474H124L144 574Q240 590 314 634H432L330 128H442L416 0H16Z" />
<glyph unicode="2" glyph-name="two" horiz-adv-x="520" d="M-14 0L4 90Q179 231 223 274Q334 379 334 454Q334 484 317 502T268 520Q245 520 226 510T174 474L98 566Q193 646 288 646Q381 646 435 598T490 470Q490 434 477 398T449 335T395 268T335 206T258 134H450L424
0H-14Z" />
<glyph unicode="3" glyph-name="three" horiz-adv-x="520" d="M-18 104L82 186Q106 153 140 135T204 116Q249 116 274 135T300 188Q300 228 269 247T154 266L176 378Q263 378 297 400T332 464Q332 490 314 505T264 520Q232 520 172 484L96 586Q185 646 294 646Q383
646 439 603T496 490Q496 428 467 388T364 322V318Q460 278 460 186Q460 92 390 40T208 -12Q66 -12 -18 104Z" />
<glyph unicode="4" glyph-name="four" horiz-adv-x="520" d="M384 0H238L267 146H8L30 258L316 634H510L437 268H506L482 146H413L384 0ZM184 268H291L308 354Q313 378 325 427T342 500H338Q330 487 316 462T290 416T266 380L184 268Z" />
<glyph unicode="5" glyph-name="five" horiz-adv-x="520" d="M-8 104L92 186Q144 116 210 116Q251 116 279 143T308 216Q308 292 232 292Q195 292 144 264L86 312L164 634H522L496 500H276L248 400Q271 410 300 410Q375 410 422 366T470 242Q470 129 392 59T208
-12Q76 -12 -8 104Z" />
<glyph unicode="6" glyph-name="six" horiz-adv-x="520" d="M264 106Q301 106 320 142T340 221Q340 292 284 292Q243 292 199 237Q198 225 198 201Q198 155 216 131T264 106ZM540 556L440 472Q408 518 366 518Q313 518 272 475T212 345Q236 370 269 385T328 400Q399
400 442 359T486 234Q486 138 420 63T256 -12Q162 -12 106 51T50 218Q50 411 141 528T376 646Q474 646 540 556Z" />
<glyph unicode="7" glyph-name="seven" horiz-adv-x="520" d="M92 0Q139 169 200 290T350 500H96L122 634H554L534 534Q408 418 350 292T256 0H92Z" />
<glyph unicode="8" glyph-name="eight" horiz-adv-x="520" d="M234 280Q180 237 180 172Q180 141 198 120T250 98Q283 98 305 119T328 178Q328 207 306 229T234 280ZM328 372Q372 416 372 472Q372 534 318 534Q291 534 274 516T256 466Q256 412 328 372ZM38 154Q38
214 74 259T170 326V330Q116 387 116 460Q116 544 178 595T330 646Q402 646 455 608T508 496Q508 385 398 328V324Q474 273 474 178Q474 93 405 41T238 -12Q190 -12 146 4T70 59T38 154Z" />
<glyph unicode="9" glyph-name="nine" horiz-adv-x="520" d="M264 342Q305 342 349 397Q350 409 350 433Q350 479 332 503T284 528Q247 528 228 492T208 413Q208 342 264 342ZM8 78L108 162Q140 116 182 116Q235 116 276 159T336 289Q312 264 279 249T220 234Q149
234 106 275T62 400Q62 496 128 571T292 646Q386 646 442 583T498 416Q498 223 407 106T172 -12Q74 -12 8 78Z" />
<glyph unicode=":" glyph-name="colon" horiz-adv-x="310" d="M158 308Q122 308 100 331T78 392Q78 435 109 469T188 504Q224 504 246 480T268 420Q268 376 237 342T158 308ZM104 -12Q68 -12 46 11T24 72Q24 115 55 149T134 184Q170 184 192 160T214 100Q214 56
183 22T104 -12Z" />
<glyph unicode=";" glyph-name="semicolon" horiz-adv-x="310" d="M-10 -196L-26 -110Q87 -79 111 2Q73 4 50 25T26 82Q26 124 55 154T130 184Q175 184 199 156T224 76Q224 -28 162 -101T-10 -196ZM188 504Q224 504 246 480T268 420Q268 376 237 342T158 308Q122
308 100 331T78 392Q78 435 109 469T188 504Z" />
<glyph unicode="&lt;" glyph-name="less" horiz-adv-x="520" d="M46 276V386L496 564V434L338 380L208 334V330L338 284L496 230V98L46 276Z" />
<glyph unicode="=" glyph-name="equal" horiz-adv-x="520" d="M496 394H48V506H496V394ZM496 154H48V266H496V154Z" />
<glyph unicode="&gt;" glyph-name="greater" horiz-adv-x="520" d="M48 98V230L206 284L336 330V334L206 380L48 434V564L498 386V276L48 98Z" />
<glyph unicode="?" glyph-name="question" horiz-adv-x="458" d="M168 -12Q132 -12 110 11T88 72Q88 115 119 149T198 184Q234 184 256 160T278 100Q278 56 247 22T168 -12ZM146 244Q151 287 170 322T214 378T261 419T300 458T316 502Q316 526 301 540T260 554Q228
554 194 520L114 610Q189 682 280 682Q367 682 419 641T472 526Q472 483 455 450T411 393T359 349T310 297T282 232L146 244Z" />
<glyph unicode="@" glyph-name="at" horiz-adv-x="886" d="M630 134Q673 134 711 191T750 346Q750 393 737 433T696 507T616 562T496 582Q415 582 336 530T203 384T150 180Q150 55 226 -12T404 -80Q462 -80 516 -46L558 -132Q468 -176 390 -176Q244 -176 143 -88T42
162Q42 268 80 363T183 526T333 634T512 674Q668 674 759 585T850 362Q850 205 779 121T600 36Q564 36 536 55T498 110H494Q476 82 444 64T382 46Q326 46 290 87T254 194Q254 291 315 367T460 444Q505 444 528 396H530L546 436H642L590 212Q581 171 590 153T630
134ZM372 202Q372 144 416 144Q442 144 472 188L502 318Q490 344 464 344Q427 344 400 298T372 202Z" />
<glyph unicode="A" glyph-name="A" horiz-adv-x="562" d="M232 268H352L350 344Q346 468 346 530H342Q270 354 266 344L232 268ZM360 0L356 148H177L110 0H-66L274 650H466L528 0H360Z" />
<glyph unicode="B" glyph-name="B" horiz-adv-x="612" d="M26 0L156 650H364Q468 650 529 613T590 500Q590 446 553 403T450 338L448 334Q558 307 558 216Q558 141 517 91T414 21T272 0H26ZM264 390H318Q426 390 426 472Q426 528 338 528H292L264 390ZM210 122H284Q343
122 373 145T404 210Q404 282 316 282H242L210 122Z" />
<glyph unicode="C" glyph-name="C" horiz-adv-x="574" d="M56 264Q56 436 158 549T406 662Q525 662 584 556L476 472Q441 524 398 524Q327 524 274 451T220 274Q220 126 344 126Q391 126 444 172L510 70Q423 -12 310 -12Q194 -12 125 61T56 264Z" />
<glyph unicode="D" glyph-name="D" horiz-adv-x="626" d="M26 0L156 650H308Q448 650 524 587T600 394Q600 203 500 102T240 0H26ZM212 128H236Q325 128 380 190T436 384Q436 522 304 522H290L212 128Z" />
<glyph unicode="E" glyph-name="E" horiz-adv-x="536" d="M26 0L156 650H552L526 516H288L266 402H468L442 268H240L212 134H458L432 0H26Z" />
<glyph unicode="F" glyph-name="F" horiz-adv-x="516" d="M26 0L156 650H552L526 516H288L262 382H464L438 248H236L186 0H26Z" />
<glyph unicode="G" glyph-name="G" horiz-adv-x="620" d="M56 264Q56 436 159 549T416 662Q545 662 604 556L496 472Q461 524 408 524Q330 524 275 452T220 274Q220 124 348 124Q380 124 404 140L428 248H332L356 378H592L530 56Q441 -12 320 -12Q197 -12 127 60T56 264Z" />
<glyph unicode="H" glyph-name="H" horiz-adv-x="664" d="M26 0L156 650H316L266 406H460L508 650H668L538 0H378L432 266H238L186 0H26Z" />
<glyph unicode="I" glyph-name="I" horiz-adv-x="310" d="M26 0L156 650H316L186 0H26Z" />
<glyph unicode="J" glyph-name="J" horiz-adv-x="504" d="M426 211Q406 112 346 50T182 -12Q125 -12 73 13T-10 86L86 184Q127 126 182 126Q217 126 238 153T272 239L354 650H514L426 211Z" />
<glyph unicode="K" glyph-name="K" horiz-adv-x="622" d="M26 0L156 650H316L267 404H271L484 650H658L424 376L568 0H402L306 276L222 180L186 0H26Z" />
<glyph unicode="L" glyph-name="L" horiz-adv-x="514" d="M26 0L156 650H316L212 134H448L422 0H26Z" />
<glyph unicode="M" glyph-name="M" horiz-adv-x="754" d="M26 0L156 650H322L364 370L379 260H383L440 370L592 650H758L628 0H478L524 216Q543 310 588 444H585L504 292L366 56H306L264 292L244 444H241Q229 280 216 216L172 0H26Z" />
<glyph unicode="N" glyph-name="N" horiz-adv-x="652" d="M26 0L156 650H310L400 342L432 196H436Q437 212 440 251T445 317T451 379T462 442L504 650H656L526 0H372L282 308L252 454H248Q234 276 220 210L178 0H26Z" />
<glyph unicode="O" glyph-name="O" horiz-adv-x="670" d="M308 -12Q194 -12 125 61T56 264Q56 439 156 550T392 662Q506 662 575 589T644 386Q644 211 544 100T308 -12ZM384 524Q324 524 272 452T220 274Q220 204 245 165T316 126Q376 126 428 198T480 376Q480
446 455 485T384 524Z" />
<glyph unicode="P" glyph-name="P" horiz-adv-x="596" d="M26 0L156 650H370Q474 650 537 607T600 472Q600 381 557 321T447 237T294 212H228L186 0H26ZM254 338H313Q375 338 408 366T442 448Q442 524 348 524H290L254 338Z" />
<glyph unicode="Q" glyph-name="Q" horiz-adv-x="670" d="M384 524Q324 524 272 452T220 274Q220 204 245 165T316 126Q376 126 428 198T480 376Q480 446 455 485T384 524ZM572 -44L578 -164Q535 -182 492 -182Q279 -182 203 7Q134 35 95 101T56 264Q56 439 156
550T392 662Q506 662 575 589T644 386Q644 234 567 129T374 -4Q414 -54 502 -54Q535 -54 572 -44Z" />
<glyph unicode="R" glyph-name="R" horiz-adv-x="612" d="M290 524L256 350H314Q377 350 409 378T442 454Q442 524 348 524H290ZM156 650H370Q475 650 537 609T600 478Q600 391 558 334T443 249L540 0H372L297 224H230L186 0H26L156 650Z" />
<glyph unicode="S" glyph-name="S" horiz-adv-x="538" d="M2 113L116 203Q142 167 178 146T252 124Q287 124 307 139T328 181Q328 187 327 192T321 203T314 211T302 221T289 230T272 240T254 251L198 286Q150 316 126 355T102 452Q102 540 172 601T341 662Q458
662 543 561L443 467Q386 524 335 524Q302 524 284 508T266 468Q266 462 267 458T273 448T281 439T293 430T307 420T325 409T346 396L406 359Q454 330 474 295T494 204Q494 112 424 50T240 -12Q95 -12 2 113Z" />
<glyph unicode="T" glyph-name="T" horiz-adv-x="540" d="M142 0L244 516H80L106 650H594L568 516H404L302 0H142Z" />
<glyph unicode="U" glyph-name="U" horiz-adv-x="654" d="M88 332L152 650H312L242 300Q234 248 234 226Q234 174 253 150T320 126Q364 126 390 162T432 282L506 650H662L588 286Q558 133 493 61T316 -12Q194 -12 134 45T74 222Q74 253 88 332Z" />
<glyph unicode="V" glyph-name="V" horiz-adv-x="576" d="M132 0L78 650H246L258 346Q262 210 262 140H266Q281 175 309 243T352 346L484 650H660L326 0H132Z" />
<glyph unicode="W" glyph-name="W" horiz-adv-x="808" d="M70 0L98 650H262L236 356Q221 210 212 148H216Q229 182 257 252T298 356L421 650H554V356Q552 286 544 148H548Q557 178 581 248T616 356L714 650H866L620 0H418L426 278Q426 321 437 429H433Q428 414
376 278L268 0H70Z" />
<glyph unicode="X" glyph-name="X" horiz-adv-x="576" d="M-36 0L202 334L104 650H282L306 536Q319 471 328 430H332Q333 432 392 536L456 650H626L400 328L506 0H328L300 126Q282 201 276 232H272Q264 217 210 126L134 0H-36Z" />
<glyph unicode="Y" glyph-name="Y" horiz-adv-x="528" d="M137 0L182 228L79 650H245L266 506Q271 477 278 427T288 362H292Q340 458 368 508L446 650H618L342 228L296 0H137Z" />
<glyph unicode="Z" glyph-name="Z" horiz-adv-x="530" d="M-6 0L14 96L344 516H104L130 650H562L542 554L216 134H480L452 0H-6Z" />
<glyph unicode="[" glyph-name="bracketleft" horiz-adv-x="344" d="M128 -68H222L204 -152H-8L164 708H376L360 624H266L128 -68Z" />
<glyph unicode="\" glyph-name="backslash" horiz-adv-x="324" d="M144 -160L84 710H186L248 -160H144Z" />
<glyph unicode="]" glyph-name="bracketright" horiz-adv-x="346" d="M-4 -68H88L226 624H134L150 708H362L190 -152H-22L-4 -68Z" />
<glyph unicode="^" glyph-name="asciicircum" horiz-adv-x="516" d="M68 272L218 670H344L494 272H364L326 390L284 526H280L236 390L198 272H68Z" />
<glyph unicode="_" glyph-name="underscore" horiz-adv-x="480" d="M-34 -56H422L404 -144H-52L-34 -56Z" />
<glyph unicode="`" glyph-name="grave" horiz-adv-x="540" d="M302 574L210 726H356L412 574H302Z" />
<glyph unicode="a" glyph-name="a" horiz-adv-x="558" d="M28 172Q28 312 108 412T294 512Q326 512 355 495T398 450H400L422 500H550L450 0H320V62H318Q247 -12 168 -12Q102 -12 65 36T28 172ZM240 118Q296 118 328 184L360 344Q342 382 306 382Q261 382 228
328T194 192Q194 118 240 118Z" />
<glyph unicode="b" glyph-name="b" horiz-adv-x="560" d="M140 0H8L148 696H308L278 550L252 458H254Q321 512 390 512Q456 512 493 464T530 328Q530 188 450 88T264 -12Q232 -12 205 5T164 50H162L140 0ZM318 382Q265 382 234 326L200 156Q215 118 252 118Q297
118 330 172T364 308Q364 382 318 382Z" />
<glyph unicode="c" glyph-name="c" horiz-adv-x="446" d="M26 196Q26 324 112 418T326 512Q412 512 462 450L374 356Q346 384 316 384Q262 384 226 330T190 198Q190 160 208 138T262 116Q294 116 330 144L396 46Q317 -12 226 -12Q139 -12 83 44T26 196Z" />
<glyph unicode="d" glyph-name="d" horiz-adv-x="550" d="M392 456L402 550L430 696H590L450 0H320V62H318Q247 -12 168 -12Q102 -12 65 36T28 172Q28 312 108 412T294 512Q360 512 390 456H392ZM240 118Q294 118 328 184L360 344Q342 382 306 382Q261 382 228
328T194 192Q194 118 240 118Z" />
<glyph unicode="e" glyph-name="e" horiz-adv-x="502" d="M26 204Q26 336 113 424T308 512Q394 512 434 460T474 322Q474 289 464 253T446 202H176Q177 155 205 132T280 108Q320 108 364 140L420 40Q346 -12 234 -12Q141 -12 84 46T26 204ZM188 298H340Q344 314
344 330Q344 390 288 390Q258 390 231 367T188 298Z" />
<glyph unicode="f" glyph-name="f" horiz-adv-x="344" d="M46 376L70 494L136 500L138 514Q155 600 205 654T344 708Q405 708 458 680L408 568Q385 582 362 582Q334 582 320 570T298 520L294 500H376L352 376H268L194 0H34L110 376H46Z" />
<glyph unicode="g" glyph-name="g" horiz-adv-x="552" d="M414 500H544L448 20Q425 -94 354 -151T172 -208Q72 -208 -16 -138L52 -32Q120 -82 176 -82Q264 -82 294 6L318 84H316Q249 20 174 20Q108 20 68 64T28 194Q28 326 105 419T288 512Q320 512 348 495T390
450H392L414 500ZM238 150Q294 150 326 206L352 344Q334 382 300 382Q256 382 225 335T194 214Q194 150 238 150Z" />
<glyph unicode="h" glyph-name="h" horiz-adv-x="556" d="M8 0L148 696H308L274 534L250 446H254Q327 512 406 512Q524 512 524 382Q524 342 516 310L454 0H294L352 290Q360 326 360 334Q360 376 318 376Q283 376 230 320L168 0H8Z" />
<glyph unicode="i" glyph-name="i" horiz-adv-x="276" d="M8 0L108 500H268L168 0H8ZM214 564Q180 564 155 583T130 638Q130 674 158 701T226 728Q260 728 285 708T310 654Q310 615 283 590T214 564Z" />
<glyph unicode="j" glyph-name="j" horiz-adv-x="278" d="M270 500L170 2Q130 -188 -30 -188Q-86 -188 -134 -164L-86 -50Q-65 -62 -44 -62Q-21 -62 -9 -46T12 10L110 500H270ZM216 564Q182 564 157 583T132 638Q132 674 160 701T228 728Q262 728 287 708T312
654Q312 615 285 590T216 564Z" />
<glyph unicode="k" glyph-name="k" horiz-adv-x="544" d="M8 0L148 696H308L232 320H236L400 500H576L370 278L488 0H328L260 186L192 118L168 0H8Z" />
<glyph unicode="l" glyph-name="l" horiz-adv-x="286" d="M42 166L148 696H308L200 160Q198 150 198 141Q198 116 218 116Q228 116 236 118L230 0Q194 -12 148 -12Q34 -12 34 98Q34 129 42 166Z" />
<glyph unicode="m" glyph-name="m" horiz-adv-x="838" d="M8 0L106 500H236V436H240Q327 512 400 512Q451 512 477 491T516 428Q607 512 682 512Q800 512 800 382Q800 348 792 310L730 0H570L628 290Q636 326 636 334Q636 376 594 376Q565 376 512 320L448 0H288L346
290Q354 326 354 334Q354 376 314 376Q283 376 230 320L168 0H8Z" />
<glyph unicode="n" glyph-name="n" horiz-adv-x="562" d="M8 0L106 500H236V436H240Q327 512 406 512Q524 512 524 382Q524 348 516 310L454 0H294L352 290Q360 326 360 334Q360 376 318 376Q283 376 230 320L168 0H8Z" />
<glyph unicode="o" glyph-name="o" horiz-adv-x="540" d="M226 -12Q136 -12 81 45T26 196Q26 335 113 423T310 512Q400 512 455 455T510 304Q510 165 423 77T226 -12ZM292 384Q248 384 218 331T188 198Q188 116 244 116Q288 116 318 169T348 302Q348 384 292 384Z" />
<glyph unicode="p" glyph-name="p" horiz-adv-x="560" d="M168 42L156 -52L132 -176H-28L108 500H238L242 446H244Q317 512 390 512Q456 512 493 464T530 328Q530 188 450 88T264 -12Q202 -12 170 42H168ZM318 382Q265 382 234 326L200 156Q215 118 252 118Q297
118 330 172T364 308Q364 382 318 382Z" />
<glyph unicode="q" glyph-name="q" horiz-adv-x="558" d="M280 -52L320 62H318Q247 -12 168 -12Q102 -12 65 36T28 172Q28 312 108 412T294 512Q326 512 355 495T398 450H400L422 500H550L414 -176H254L280 -52ZM240 118Q294 118 328 184L360 344Q342 382 306
382Q261 382 228 328T194 192Q194 118 240 118Z" />
<glyph unicode="r" glyph-name="r" horiz-adv-x="400" d="M8 0L106 500H236L232 402H236Q265 451 306 481T388 512Q425 512 442 502L390 364Q376 372 338 372Q275 372 222 280L168 0H8Z" />
<glyph unicode="s" glyph-name="s" horiz-adv-x="432" d="M-10 86L82 162Q132 104 182 104Q205 104 221 113T238 138Q238 146 235 152T223 164T207 175T182 188T154 204Q58 259 58 344Q58 416 116 464T260 512Q354 512 430 432L344 350Q300 394 260 394Q237 394
223 384T208 358Q208 348 216 339T233 325T260 311T288 296Q388 242 388 156Q388 81 328 35T172 -12Q125 -12 73 13T-10 86Z" />
<glyph unicode="t" glyph-name="t" horiz-adv-x="384" d="M68 194L106 376H42L66 494L138 500L182 628H316L292 500H400L376 376H264L226 188Q224 176 224 156Q224 112 272 112Q288 112 308 122L336 10Q274 -12 210 -12Q134 -12 97 25T60 128Q60 150 68 194Z" />
<glyph unicode="u" glyph-name="u" horiz-adv-x="552" d="M542 500L444 0H314V64H310Q230 -12 150 -12Q32 -12 32 118Q32 152 40 190L102 500H262L204 210Q196 174 196 166Q196 124 238 124Q273 124 320 180L382 500H542Z" />
<glyph unicode="v" glyph-name="v" horiz-adv-x="518" d="M120 0L60 500H220L230 272Q232 222 232 118H236Q247 144 268 195T300 272L398 500H554L304 0H120Z" />
<glyph unicode="w" glyph-name="w" horiz-adv-x="764" d="M92 0L73 500H231L226 278Q225 250 221 199T216 128H220Q260 242 276 278L367 500H503L508 278Q509 251 508 200T506 128H510Q518 151 534 201T560 278L640 500H788L580 0H394V186Q395 205 395 253T398
332H394Q386 310 370 261T344 186L272 0H92Z" />
<glyph unicode="x" glyph-name="x" horiz-adv-x="514" d="M-38 0L168 268L84 500H246L271 423Q275 409 282 381T293 338H297Q304 352 320 380T344 423L382 500H552L360 232L450 0H286L260 76Q255 90 247 119T234 162H230Q221 146 203 117T179 76L133 0H-38Z" />
<glyph unicode="y" glyph-name="y" horiz-adv-x="518" d="M24 -52Q41 -62 62 -62Q85 -62 107 -47T143 -5L153 15L65 500H224L242 295Q248 231 248 144H252Q261 164 283 217T316 295L406 500H560L299 1Q241 -99 185 -143T52 -188Q13 -188 -24 -166L24 -52Z" />
<glyph unicode="z" glyph-name="z" horiz-adv-x="456" d="M-10 0L8 90L248 376H84L108 500H472L454 408L214 124H404L380 0H-10Z" />
<glyph unicode="{" glyph-name="braceleft" horiz-adv-x="342" d="M44 -62Q44 -18 69 68T94 172Q94 229 24 232L44 324Q127 327 142 400Q148 429 152 477T164 562Q181 645 213 676T315 708H385L367 624H351Q323 624 311 610T291 556Q286 530 278 479T264 400Q252
342 228 314T160 276L159 272Q190 265 205 248T220 198Q220 163 198 78T176 -34Q176 -53 184 -60T214 -68H228L212 -152H144Q90 -152 67 -130T44 -62Z" />
<glyph unicode="|" glyph-name="bar" horiz-adv-x="264" d="M86 -250V750H184V-250H86Z" />
<glyph unicode="}" glyph-name="braceright" horiz-adv-x="346" d="M309 618Q309 574 284 488T259 384Q259 327 329 324L309 232Q226 229 211 156Q205 127 201 79T189 -6Q172 -89 140 -120T38 -152H-32L-14 -68H2Q30 -68 42 -54T62 0Q67 26 75 77T89 156Q101 214
125 242T193 280L194 284Q163 291 148 308T133 358Q133 392 155 478T177 590Q177 609 169 616T139 624H125L141 708H209Q263 708 286 686T309 618Z" />
<glyph unicode="~" glyph-name="asciitilde" horiz-adv-x="520" d="M116 260L36 314Q98 422 188 422Q220 422 250 404T305 367T352 348Q391 348 418 402L498 348Q436 240 346 240Q314 240 284 258T229 295T182 314Q143 314 116 260Z" />
</font>
</defs>
</svg>
